<svg xmlns:xlink="http://www.w3.org/1999/xlink" xmlns="http://www.w3.org/2000/svg" width="1440" height="1024" viewBox="0 0 1440 1024" fill="none">
<g clip-path="url(#clip0_10331_43133)">
<rect width="1440" height="1024" fill="#0F1132"/>
<g opacity="0.4">
<circle cx="685.662" cy="295.291" r="1.10769" fill="white"/>
<circle cx="515.076" cy="233.261" r="1.10769" fill="white"/>
<circle cx="902.772" cy="184.523" r="1.10769" fill="white"/>
<circle cx="628.065" cy="133.569" r="1.10769" fill="white"/>
<circle cx="608.123" cy="457.016" r="1.10769" fill="white"/>
<circle cx="477.42" cy="277.569" r="1.10769" fill="white"/>
<circle cx="809.725" cy="215.538" r="1.10769" fill="white"/>
<circle cx="880.615" cy="476.953" r="1.10769" fill="white"/>
<circle cx="687.881" cy="417.139" r="1.10769" fill="white"/>
<circle cx="760.987" cy="111.415" r="1.10769" fill="white"/>
<circle cx="1170.83" cy="131.354" r="1.10769" fill="white"/>
<circle cx="1011.33" cy="297.506" r="1.10769" fill="white"/>
<circle cx="732.186" cy="379.477" r="1.10769" fill="white"/>
<circle cx="328.987" cy="146.862" r="1.10769" fill="white"/>
<circle cx="490.709" cy="109.199" r="1.10769" fill="#44404F"/>
<circle cx="625.85" cy="304.155" r="1.10769" fill="#44404F"/>
<circle cx="313.479" cy="306.369" r="1.10769" fill="#44404F"/>
<circle cx="1031.26" cy="144.646" r="1.10769" fill="#44404F"/>
<circle cx="940.432" cy="106.985" r="1.10769" fill="#44404F"/>
<circle cx="776.49" cy="335.17" r="1.10769" fill="#44404F"/>
<circle cx="630.28" cy="200.031" r="1.10769" fill="#44404F"/>
<circle cx="690.092" cy="104.769" r="1.10769" fill="#44404F"/>
<circle cx="922.711" cy="266.491" r="1.10769" fill="#44404F"/>
<circle cx="845.172" cy="474.739" r="1.10769" fill="#44404F"/>
</g>
<g opacity="0.5">
<circle cx="484.069" cy="282" r="1.10769" fill="white"/>
<circle cx="313.483" cy="219.969" r="1.10769" fill="white"/>
<circle cx="701.174" cy="171.231" r="1.10769" fill="white"/>
<circle cx="426.467" cy="120.277" r="1.10769" fill="white"/>
<circle cx="406.53" cy="443.723" r="1.10769" fill="white"/>
<circle cx="275.819" cy="264.276" r="1.10769" fill="white"/>
<circle cx="608.127" cy="202.246" r="1.10769" fill="white"/>
<circle cx="679.022" cy="463.662" r="1.10769" fill="white"/>
<circle cx="486.28" cy="403.846" r="1.10769" fill="white"/>
<circle cx="559.389" cy="98.1233" r="1.10769" fill="white"/>
<circle cx="969.237" cy="118.062" r="1.10769" fill="white"/>
<circle cx="809.727" cy="284.215" r="1.10769" fill="white"/>
<circle cx="530.592" cy="366.186" r="1.10769" fill="white"/>
<circle cx="127.389" cy="133.57" r="1.10769" fill="white"/>
<circle cx="289.112" cy="95.9075" r="1.10769" fill="#44404F"/>
<circle cx="424.248" cy="290.862" r="1.10769" fill="#44404F"/>
<circle cx="111.881" cy="293.076" r="1.10769" fill="#44404F"/>
<circle cx="829.666" cy="131.354" r="1.10769" fill="#44404F"/>
<circle cx="738.834" cy="93.6926" r="1.10769" fill="#44404F"/>
<circle cx="574.897" cy="321.877" r="1.10769" fill="#44404F"/>
<circle cx="428.678" cy="186.739" r="1.10769" fill="#44404F"/>
<circle cx="488.498" cy="91.4768" r="1.10769" fill="#44404F"/>
<circle cx="721.115" cy="253.199" r="1.10769" fill="#44404F"/>
<circle cx="643.576" cy="461.448" r="1.10769" fill="#44404F"/>
</g>
<g opacity="0.7">
<circle cx="1095.51" cy="634.246" r="1.10769" fill="white"/>
<circle cx="924.926" cy="572.215" r="1.10769" fill="white"/>
<circle cx="1312.62" cy="523.477" r="1.10769" fill="white"/>
<circle cx="1037.91" cy="472.522" r="1.10769" fill="white"/>
<circle cx="1017.97" cy="795.969" r="1.10769" fill="white"/>
<circle cx="887.266" cy="616.522" r="1.10769" fill="white"/>
<circle cx="1219.57" cy="554.492" r="1.10769" fill="white"/>
<circle cx="1290.47" cy="815.908" r="1.10769" fill="white"/>
<circle cx="1097.72" cy="756.092" r="1.10769" fill="white"/>
<circle cx="1170.83" cy="450.369" r="1.10769" fill="white"/>
<circle cx="1421.17" cy="636.461" r="1.10769" fill="white"/>
<circle cx="1142.03" cy="718.432" r="1.10769" fill="white"/>
<circle cx="738.834" cy="485.815" r="1.10769" fill="white"/>
<circle cx="900.557" cy="448.155" r="1.10769" fill="#44404F"/>
<circle cx="1035.7" cy="643.108" r="1.10769" fill="#44404F"/>
<circle cx="723.326" cy="645.323" r="1.10769" fill="#44404F"/>
<circle cx="1350.28" cy="445.94" r="1.10769" fill="#44404F"/>
<circle cx="1186.34" cy="674.123" r="1.10769" fill="#44404F"/>
<circle cx="1040.13" cy="538.985" r="1.10769" fill="#44404F"/>
<circle cx="1099.94" cy="443.723" r="1.10769" fill="#44404F"/>
<circle cx="1332.56" cy="605.446" r="1.10769" fill="#44404F"/>
<circle cx="1255.02" cy="813.694" r="1.10769" fill="#44404F"/>
</g>
<g opacity="0.7">
<circle cx="1184.13" cy="257.631" r="1.10769" fill="white"/>
<circle cx="1013.54" cy="195.6" r="1.10769" fill="white"/>
<circle cx="1401.23" cy="146.862" r="1.10769" fill="white"/>
<circle cx="1126.53" cy="95.9075" r="1.10769" fill="white"/>
<circle cx="1106.59" cy="419.354" r="1.10769" fill="white"/>
<circle cx="975.881" cy="239.908" r="1.10769" fill="white"/>
<circle cx="1308.19" cy="177.877" r="1.10769" fill="white"/>
<circle cx="1379.08" cy="439.291" r="1.10769" fill="white"/>
<circle cx="1186.34" cy="379.477" r="1.10769" fill="white"/>
<circle cx="1259.45" cy="73.7542" r="1.10769" fill="white"/>
<circle cx="1230.65" cy="341.815" r="1.10769" fill="white"/>
<circle cx="827.449" cy="109.2" r="1.10769" fill="white"/>
<circle cx="989.172" cy="71.5384" r="1.10769" fill="#44404F"/>
<circle cx="1124.31" cy="266.492" r="1.10769" fill="#44404F"/>
<circle cx="811.942" cy="268.707" r="1.10769" fill="#44404F"/>
<circle cx="1438.89" cy="69.3235" r="1.10769" fill="#44404F"/>
<circle cx="1274.96" cy="297.508" r="1.10769" fill="#44404F"/>
<circle cx="1128.74" cy="162.369" r="1.10769" fill="#44404F"/>
<circle cx="1188.56" cy="67.1077" r="1.10769" fill="#44404F"/>
<circle cx="1421.17" cy="228.83" r="1.10769" fill="#44404F"/>
<circle cx="1343.64" cy="437.076" r="1.10769" fill="#44404F"/>
</g>
<g opacity="0.5">
<circle cx="413.178" cy="758.307" r="1.10769" fill="white"/>
<circle cx="242.592" cy="696.276" r="1.10769" fill="white"/>
<circle cx="630.283" cy="647.537" r="1.10769" fill="white"/>
<circle cx="355.576" cy="596.584" r="1.10769" fill="white"/>
<circle cx="335.639" cy="920.03" r="1.10769" fill="white"/>
<circle cx="204.928" cy="740.584" r="1.10769" fill="white"/>
<circle cx="537.237" cy="678.553" r="1.10769" fill="white"/>
<circle cx="608.127" cy="939.967" r="1.10769" fill="white"/>
<circle cx="415.389" cy="880.153" r="1.10769" fill="white"/>
<circle cx="488.498" cy="574.43" r="1.10769" fill="white"/>
<circle cx="898.346" cy="594.369" r="1.10769" fill="white"/>
<circle cx="738.834" cy="760.522" r="1.10769" fill="white"/>
<circle cx="459.701" cy="842.49" r="1.10769" fill="white"/>
<circle cx="56.4983" cy="609.877" r="1.10769" fill="white"/>
<circle cx="218.221" cy="572.215" r="1.10769" fill="#44404F"/>
<circle cx="353.358" cy="767.168" r="1.10769" fill="#44404F"/>
<circle cx="40.9905" cy="769.383" r="1.10769" fill="#44404F"/>
<circle cx="758.776" cy="607.66" r="1.10769" fill="#44404F"/>
<circle cx="667.944" cy="569.998" r="1.10769" fill="#44404F"/>
<circle cx="504.006" cy="798.184" r="1.10769" fill="#44404F"/>
<circle cx="357.787" cy="663.045" r="1.10769" fill="#44404F"/>
<circle cx="417.608" cy="567.783" r="1.10769" fill="#44404F"/>
<circle cx="650.225" cy="729.506" r="1.10769" fill="#44404F"/>
<circle cx="572.686" cy="937.752" r="1.10769" fill="#44404F"/>
</g>
<g opacity="0.5">
<circle cx="838.283" cy="1015.54" r="1.10769" fill="white"/>
<circle cx="563.576" cy="964.584" r="1.10769" fill="white"/>
<circle cx="696.498" cy="942.43" r="1.10769" fill="white"/>
<circle cx="1106.35" cy="962.369" r="1.10769" fill="white"/>
<circle cx="264.498" cy="977.877" r="1.10769" fill="white"/>
<circle cx="426.221" cy="940.215" r="1.10769" fill="#44404F"/>
<circle cx="966.776" cy="975.66" r="1.10769" fill="#44404F"/>
<circle cx="875.944" cy="937.998" r="1.10769" fill="#44404F"/>
<circle cx="625.608" cy="935.783" r="1.10769" fill="#44404F"/>
</g>
<g opacity="0.5">
<circle cx="373.295" cy="406.061" r="1.10769" fill="white"/>
<circle cx="202.709" cy="344.03" r="1.10769" fill="white"/>
<circle cx="590.401" cy="295.291" r="1.10769" fill="white"/>
<circle cx="315.694" cy="244.338" r="1.10769" fill="white"/>
<circle cx="295.756" cy="567.783" r="1.10769" fill="white"/>
<circle cx="165.045" cy="388.338" r="1.10769" fill="white"/>
<circle cx="497.354" cy="326.307" r="1.10769" fill="white"/>
<circle cx="568.244" cy="587.723" r="1.10769" fill="white"/>
<circle cx="375.506" cy="527.908" r="1.10769" fill="white"/>
<circle cx="448.616" cy="222.185" r="1.10769" fill="white"/>
<circle cx="858.461" cy="242.123" r="1.10769" fill="white"/>
<circle cx="698.955" cy="408.276" r="1.10769" fill="white"/>
<circle cx="419.815" cy="490.246" r="1.10769" fill="white"/>
<circle cx="16.6155" cy="257.631" r="1.10769" fill="white"/>
<circle cx="178.338" cy="219.969" r="1.10769" fill="#44404F"/>
<circle cx="313.475" cy="414.924" r="1.10769" fill="#44404F"/>
<circle cx="1.10769" cy="417.139" r="1.10769" fill="#44404F"/>
<circle cx="718.893" cy="255.416" r="1.10769" fill="#44404F"/>
<circle cx="628.061" cy="217.754" r="1.10769" fill="#44404F"/>
<circle cx="464.123" cy="445.94" r="1.10769" fill="#44404F"/>
<circle cx="317.905" cy="310.799" r="1.10769" fill="#44404F"/>
<circle cx="377.725" cy="215.538" r="1.10769" fill="#44404F"/>
<circle cx="532.803" cy="585.508" r="1.10769" fill="#44404F"/>
</g>
<g opacity="0.3">
<circle cx="743.264" cy="776.03" r="1.10769" fill="white"/>
<circle cx="572.678" cy="713.998" r="1.10769" fill="white"/>
<circle cx="960.373" cy="665.26" r="1.10769" fill="white"/>
<circle cx="685.662" cy="614.307" r="1.10769" fill="white"/>
<circle cx="665.725" cy="937.752" r="1.10769" fill="white"/>
<circle cx="535.022" cy="758.307" r="1.10769" fill="white"/>
<circle cx="867.326" cy="696.276" r="1.10769" fill="white"/>
<circle cx="938.219" cy="957.69" r="1.10769" fill="white"/>
<circle cx="745.479" cy="897.875" r="1.10769" fill="white"/>
<circle cx="818.586" cy="592.153" r="1.10769" fill="white"/>
<circle cx="1228.44" cy="612.092" r="1.10769" fill="white"/>
<circle cx="1068.93" cy="778.244" r="1.10769" fill="white"/>
<circle cx="789.787" cy="860.213" r="1.10769" fill="white"/>
<circle cx="386.588" cy="627.6" r="1.10769" fill="white"/>
<circle cx="548.311" cy="589.936" r="1.10769" fill="#44404F"/>
<circle cx="683.451" cy="784.891" r="1.10769" fill="#44404F"/>
<circle cx="371.08" cy="787.106" r="1.10769" fill="#44404F"/>
<circle cx="1088.87" cy="625.383" r="1.10769" fill="#44404F"/>
<circle cx="834.094" cy="815.906" r="1.10769" fill="#44404F"/>
<circle cx="687.881" cy="680.768" r="1.10769" fill="#44404F"/>
<circle cx="747.694" cy="585.506" r="1.10769" fill="#44404F"/>
<circle cx="980.311" cy="747.229" r="1.10769" fill="#44404F"/>
<circle cx="902.774" cy="955.475" r="1.10769" fill="#44404F"/>
</g>
<g opacity="0.3">
<circle cx="408.741" cy="530.123" r="1.10769" fill="white"/>
<circle cx="238.155" cy="468.092" r="1.10769" fill="white"/>
<circle cx="625.85" cy="419.354" r="1.10769" fill="white"/>
<circle cx="351.143" cy="368.401" r="1.10769" fill="white"/>
<circle cx="331.205" cy="691.846" r="1.10769" fill="white"/>
<circle cx="200.494" cy="512.401" r="1.10769" fill="white"/>
<circle cx="532.803" cy="450.369" r="1.10769" fill="white"/>
<circle cx="603.694" cy="711.783" r="1.10769" fill="white"/>
<circle cx="410.959" cy="651.969" r="1.10769" fill="white"/>
<circle cx="484.065" cy="346.246" r="1.10769" fill="white"/>
<circle cx="893.91" cy="366.186" r="1.10769" fill="white"/>
<circle cx="734.405" cy="532.338" r="1.10769" fill="white"/>
<circle cx="455.264" cy="614.307" r="1.10769" fill="white"/>
<circle cx="52.0647" cy="381.694" r="1.10769" fill="white"/>
<circle cx="213.787" cy="344.032" r="1.10769" fill="#44404F"/>
<circle cx="348.928" cy="538.985" r="1.10769" fill="#44404F"/>
<circle cx="36.5569" cy="541.199" r="1.10769" fill="#44404F"/>
<circle cx="754.342" cy="379.477" r="1.10769" fill="#44404F"/>
<circle cx="663.51" cy="341.815" r="1.10769" fill="#44404F"/>
<circle cx="499.573" cy="570" r="1.10769" fill="#44404F"/>
<circle cx="353.358" cy="434.862" r="1.10769" fill="#44404F"/>
<circle cx="413.17" cy="339.6" r="1.10769" fill="#44404F"/>
<circle cx="645.787" cy="501.323" r="1.10769" fill="#44404F"/>
<circle cx="568.248" cy="709.569" r="1.10769" fill="#44404F"/>
</g>
</g>
<defs>
<clipPath id="clip0_10331_43133">
<rect width="1440" height="1024" fill="white"/>
</clipPath>
</defs>
</svg>