<?xml version="1.0" standalone="no"?>
<!DOCTYPE svg PUBLIC "-//W3C//DTD SVG 20010904//EN"
 "http://www.w3.org/TR/2001/REC-SVG-20010904/DTD/svg10.dtd">
<svg version="1.0" xmlns="http://www.w3.org/2000/svg"
 width="500.000000pt" height="500.000000pt" viewBox="0 0 500.000000 500.000000"
 preserveAspectRatio="xMidYMid meet">

<g transform="translate(0.000000,500.000000) scale(0.100000,-0.100000)"
fill="#000000" stroke="none">
<path d="M2109 4955 c-402 -63 -805 -236 -1113 -477 -139 -109 -348 -323 -475
-487 -148 -190 -312 -498 -385 -721 -125 -385 -153 -732 -91 -1150 77 -517
324 -1001 704 -1380 239 -238 472 -397 758 -518 307 -129 566 -186 907 -198
267 -10 506 15 711 75 437 127 813 339 1091 616 301 299 506 632 644 1045 91
271 126 513 117 802 -16 511 -175 955 -517 1438 -110 155 -263 314 -414 431
-385 296 -778 469 -1202 529 -208 29 -532 27 -735 -5z m479 -92 c-54 -2 -142
-2 -195 0 -54 1 -10 3 97 3 107 0 151 -2 98 -3z m-360 -10 c-10 -2 -28 -2 -40
0 -13 2 -5 4 17 4 22 1 32 -1 23 -4z m-182 -29 c-61 -13 -112 -22 -114 -19 -4
3 11 8 113 33 22 5 56 10 75 10 19 0 -14 -10 -74 -24z m837 19 c-7 -2 -19 -2
-25 0 -7 3 -2 5 12 5 14 0 19 -2 13 -5z m54 -9 c-3 -3 -12 -4 -19 -1 -8 3 -5
6 6 6 11 1 17 -2 13 -5z m40 -10 c-3 -3 -12 -4 -19 -1 -8 3 -5 6 6 6 11 1 17
-2 13 -5z m50 -10 c-3 -3 -12 -4 -19 -1 -8 3 -5 6 6 6 11 1 17 -2 13 -5z
m-1110 -20 c-3 -3 -12 -4 -19 -1 -8 3 -5 6 6 6 11 1 17 -2 13 -5z m-67 -19
c-19 -7 -44 -13 -55 -13 -11 0 -2 5 20 13 53 17 80 17 35 0z m492 -17 c20 -15
46 -48 58 -73 22 -46 22 -48 11 -253 -22 -410 -52 -808 -62 -839 -11 -36 -51
-74 -95 -90 -16 -7 -67 -26 -114 -43 -281 -106 -494 -322 -596 -607 -64 -178
-70 -181 -352 -199 -354 -21 -804 -38 -842 -31 -92 18 -138 101 -126 228 31
336 247 829 488 1111 211 249 375 388 643 546 154 91 466 214 612 242 32 6 87
18 123 25 36 8 99 13 141 12 65 -2 80 -6 111 -29z m642 -3 c127 -26 374 -110
500 -170 418 -196 756 -499 993 -890 142 -235 231 -462 288 -739 29 -143 31
-204 9 -249 -24 -46 -44 -66 -89 -89 -35 -19 -52 -20 -160 -15 -267 12 -814
47 -874 56 -72 11 -108 38 -134 99 -9 20 -33 77 -53 126 -47 112 -122 235
-184 303 -104 113 -251 220 -364 262 -160 60 -217 98 -235 155 -21 65 -65 996
-50 1049 12 46 52 94 93 112 38 18 147 14 260 -10z m-1259 -15 c-27 -12 -43
-12 -25 0 8 5 22 9 30 9 10 0 8 -3 -5 -9z m-45 -14 c0 -2 -7 -7 -16 -10 -8 -3
-12 -2 -9 4 6 10 25 14 25 6z m-125 -56 c-3 -5 -12 -10 -18 -10 -7 0 -6 4 3
10 19 12 23 12 15 0z m-105 -44 c0 -6 -113 -67 -117 -62 -2 1 23 17 54 34 62
34 63 34 63 28z m-150 -81 c0 -2 -10 -9 -22 -15 -22 -11 -22 -10 -4 4 21 17
26 19 26 11z m-220 -149 c0 -2 -8 -10 -17 -17 -16 -13 -17 -12 -4 4 13 16 21
21 21 13z m3576 -898 c46 -108 51 -126 18 -58 -15 30 -43 85 -61 122 -18 37
-33 71 -33 75 1 17 43 -60 76 -139z m-2007 -93 c1 -2 -62 -3 -140 -2 -88 1
-126 4 -99 8 43 6 231 1 239 -6z m-354 -25 c-73 -19 -101 -20 -43 -2 45 15 69
20 93 20 11 0 -11 -8 -50 -18z m398 13 c-7 -2 -19 -2 -25 0 -7 3 -2 5 12 5 14
0 19 -2 13 -5z m44 -9 c-3 -3 -12 -4 -19 -1 -8 3 -5 6 6 6 11 1 17 -2 13 -5z
m68 -19 c39 -17 21 -18 -25 0 -19 7 -28 14 -20 14 8 0 29 -6 45 -14z m1915
-13 c0 -15 -2 -15 -10 -2 -13 20 -13 33 0 25 6 -3 10 -14 10 -23z m-2619 -42
c-41 -21 -79 -44 -85 -50 -5 -5 -15 -10 -20 -10 -6 0 1 8 14 17 36 26 143 83
155 83 6 -1 -23 -18 -64 -40z m357 3 c-10 -2 -28 -2 -40 0 -13 2 -5 4 17 4 22
1 32 -1 23 -4z m145 0 c-13 -2 -33 -2 -45 0 -13 2 -3 4 22 4 25 0 35 -2 23 -4z
m-271 -18 c-28 -7 -71 -20 -93 -29 -23 -9 -43 -15 -46 -13 -4 4 97 43 132 50
48 11 55 4 7 -8z m335 9 c-3 -3 -12 -4 -19 -1 -8 3 -5 6 6 6 11 1 17 -2 13 -5z
m-687 -57 c0 -2 -12 -14 -27 -28 l-28 -24 24 28 c23 25 31 32 31 24z m165 -18
c-22 -12 -59 -34 -83 -50 -24 -16 -40 -24 -36 -18 10 18 125 89 143 89 9 0 -2
-10 -24 -21z m-225 -32 c0 -2 -12 -14 -27 -28 l-28 -24 24 28 c23 25 31 32 31
24z m90 -50 c0 -2 -12 -14 -27 -28 l-28 -24 24 28 c23 25 31 32 31 24z m760
-22 c13 -14 21 -25 18 -25 -2 0 -15 11 -28 25 -13 14 -21 25 -18 25 2 0 15
-11 28 -25z m2027 -37 c-3 -8 -6 -5 -6 6 -1 11 2 17 5 13 3 -3 4 -12 1 -19z
m-2566 -15 c-12 -20 -14 -14 -5 12 4 9 9 14 11 11 3 -2 0 -13 -6 -23z m-14
-55 c-3 -7 -5 -2 -5 12 0 14 2 19 5 13 2 -7 2 -19 0 -25z m553 -112 c0 -2 -8
-10 -17 -17 -16 -13 -17 -12 -4 4 13 16 21 21 21 13z m468 -41 c-3 -3 -9 2
-12 12 -6 14 -5 15 5 6 7 -7 10 -15 7 -18z m143 -92 c54 -166 51 -412 -6 -535
-8 -18 -13 -24 -9 -13 58 200 58 392 -2 567 -26 77 -26 78 -19 78 2 0 18 -44
36 -97z m-86 -48 c3 -16 -6 -1 -19 35 -14 36 -25 67 -25 70 1 11 38 -77 44
-105z m-1205 51 c6 -8 10 -25 8 -38 -2 -19 -10 -24 -40 -26 -35 -3 -38 -1 -38
22 0 14 -6 26 -12 27 -82 4 -84 4 -85 -16 -4 -59 3 -65 74 -65 81 0 103 -15
103 -71 0 -56 -14 -65 -119 -68 -119 -3 -131 1 -131 45 0 32 2 34 34 34 22 0
36 -6 40 -16 5 -14 4 -15 -8 -5 -8 7 -23 11 -33 8 -15 -4 -14 -5 3 -6 12 0 27
-8 34 -16 8 -9 30 -15 56 -15 l44 0 0 38 c0 55 -11 61 -96 55 l-74 -5 0 54 c0
30 5 59 12 66 18 18 212 16 228 -2z m120 -111 l0 -125 -40 0 -40 0 0 125 0
125 40 0 40 0 0 -125z m280 115 c8 0 40 2 71 6 82 9 89 -1 89 -137 l0 -109
-40 0 -40 0 0 105 c0 93 -2 105 -19 115 -25 13 -27 13 -45 -6 -12 -12 -16 -38
-16 -115 l0 -99 -40 0 -40 0 0 99 c0 74 -4 103 -15 114 -8 8 -11 18 -7 22 4 4
-4 2 -18 -5 -37 -19 -40 -27 -40 -132 l0 -98 -40 0 -40 0 0 125 0 125 113 -5
c61 -3 119 -5 127 -5z m422 -7 c15 -13 18 -32 18 -113 0 -71 -4 -101 -14 -109
-9 -8 -50 -11 -117 -9 l-104 3 -3 109 c-2 71 1 113 9 122 18 22 186 19 211 -3z
m256 -9 c22 -14 23 -21 22 -107 -3 -123 -4 -127 -46 -127 l-34 0 0 103 c0 105
-7 127 -41 127 -30 0 -38 -24 -41 -125 l-3 -100 -37 -3 -38 -3 0 125 0 125 98
0 c68 0 104 -5 120 -15z m158 -209 c6 -78 -4 -179 -27 -258 -6 -22 -12 -37
-14 -35 -2 2 3 31 12 63 17 65 22 202 11 305 -5 47 -4 57 2 35 6 -16 13 -66
16 -110z m-2736 -145 c74 -5 284 -19 465 -30 182 -11 342 -23 357 -26 42 -9
93 -73 118 -150 54 -165 142 -307 268 -431 97 -95 206 -167 325 -213 143 -56
157 -63 187 -96 15 -18 31 -45 34 -61 11 -53 58 -908 54 -989 -3 -71 -7 -85
-32 -118 -38 -50 -104 -79 -176 -78 -30 0 -108 12 -173 26 -703 152 -1300 628
-1608 1281 -101 214 -190 536 -193 695 -1 92 33 149 109 185 36 17 86 18 265
5z m4119 -43 c49 -32 81 -97 81 -162 0 -146 -99 -484 -209 -710 -101 -210
-191 -346 -345 -522 -257 -295 -613 -533 -977 -653 -146 -49 -411 -110 -475
-110 -52 0 -127 45 -154 92 -28 50 -28 85 -5 483 8 138 17 311 20 385 10 210
18 247 62 292 24 25 60 46 107 64 211 78 344 163 465 296 57 63 134 179 162
246 11 26 26 60 34 77 7 16 18 46 24 65 19 57 60 111 97 126 24 10 103 18 252
24 247 11 610 29 662 34 87 9 160 -1 199 -27z m-2961 -342 c-3 -3 -9 2 -12 12
-6 14 -5 15 5 6 7 -7 10 -15 7 -18z m58 -75 c25 -30 29 -37 10 -20 -15 14 -37
39 -49 55 -24 36 -14 26 39 -35z m70 -82 l29 -33 -32 29 c-18 17 -33 31 -33
33 0 8 8 1 36 -29z m119 -102 c6 -5 1 -4 -10 2 -11 6 -33 25 -50 44 l-30 33
40 -35 c22 -19 45 -39 50 -44z m85 -53 c0 -7 -39 17 -46 28 -3 6 5 3 20 -6 14
-10 26 -19 26 -22z m-1399 -720 c13 -16 12 -17 -3 -4 -10 7 -18 15 -18 17 0 8
8 3 21 -13z m150 -160 c13 -16 12 -17 -3 -4 -10 7 -18 15 -18 17 0 8 8 3 21
-13z"/>
<path d="M1891 2747 c-8 -10 -7 -14 2 -14 8 0 14 6 14 14 0 7 -1 13 -2 13 -2
0 -8 -6 -14 -13z"/>
<path d="M2770 2741 c-14 -27 -13 -154 2 -169 7 -7 21 -12 33 -12 12 0 26 5
33 12 16 16 16 160 0 176 -18 18 -56 14 -68 -7z"/>
</g>
</svg>
